<svg xmlns="http://www.w3.org/2000/svg" width="420" height="64" viewBox="0 0 420 64" role="img" aria-label="タスカルツールズ">
  <defs>
    <linearGradient id="tsk" x1="0" y1="0" x2="1" y2="1">
      <stop offset="0%" stop-color="#3b82f6"/>
      <stop offset="100%" stop-color="#8b5cf6"/>
    </linearGradient>
  </defs>
  <g transform="translate(6 6)">
    <rect width="52" height="52" rx="13" fill="url(#tsk)"/>
    <g transform="translate(12 12) scale(1.15)" fill="none" stroke="#ffffff" stroke-width="2" stroke-linecap="round" stroke-linejoin="round">
      <path d="M14.7 6.3a1 1 0 0 0 0 1.4l1.6 1.6a1 1 0 0 0 1.4 0l3.77-3.77a6 6 0 0 1-7.94 7.94l-6.91 6.91a2.12 2.12 0 0 1-3-3l6.91-6.91a6 6 0 0 1 7.94-7.94l-3.76 3.76z"/>
    </g>
  </g>
  <text x="74" y="30" font-family="-apple-system,'Hiragino Sans','Noto Sans JP','Segoe UI',Meiryo,sans-serif" font-size="26" font-weight="700" fill="#ffffff">タスカルツールズ</text>
  <text x="74" y="52" font-family="-apple-system,'Hiragino Sans','Noto Sans JP','Segoe UI',Meiryo,sans-serif" font-size="14" fill="#9fb0c3">無料で使える便利ツール集</text>
</svg>
